<?xml version="1.0" encoding="utf-8"?>
<!-- Generator: Adobe Illustrator 24.0.1, SVG Export Plug-In . SVG Version: 6.00 Build 0)  -->
<svg version="1.1" id="Layer_1" focusable="false" xmlns="http://www.w3.org/2000/svg" xmlns:xlink="http://www.w3.org/1999/xlink"
	 x="0px" y="0px" viewBox="0 0 256 512" style="enable-background:new 0 0 256 512;" xml:space="preserve">
<style type="text/css">
	.st0{fill:#00B9CB;}
</style>
<path class="st0" d="M224.3,273l-136,136c-9.4,9.4-24.6,9.4-33.9,0l-22.6-22.6c-9.4-9.4-9.4-24.6,0-33.9l96.4-96.4l-96.4-96.4
	c-9.4-9.4-9.4-24.6,0-33.9L54.3,103c9.4-9.4,24.6-9.4,33.9,0l136,136C233.7,248.4,233.7,263.6,224.3,273z"/>
<rect x="585" y="84" style="fill:none;" width="54" height="345"/>
<text transform="matrix(1 0 0 1 585 92.52)"><tspan x="0" y="0" style="font-family:'MyriadPro-Regular'; font-size:12px;">Lorem </tspan><tspan x="0" y="14.4" style="font-family:'MyriadPro-Regular'; font-size:12px;">ipsum </tspan><tspan x="0" y="28.8" style="font-family:'MyriadPro-Regular'; font-size:12px;">dolor sit </tspan><tspan x="0" y="43.2" style="font-family:'MyriadPro-Regular'; font-size:12px;">amet, </tspan><tspan x="0" y="57.6" style="font-family:'MyriadPro-Regular'; font-size:12px;">consec</tspan><tspan x="34.8" y="57.6" style="font-family:'MyriadPro-Regular'; font-size:12px;">-</tspan><tspan x="0" y="72" style="font-family:'MyriadPro-Regular'; font-size:12px;">tetuer </tspan><tspan x="0" y="86.4" style="font-family:'MyriadPro-Regular'; font-size:12px;">adipiscing </tspan><tspan x="0" y="100.8" style="font-family:'MyriadPro-Regular'; font-size:12px;">elit, sed </tspan><tspan x="0" y="115.2" style="font-family:'MyriadPro-Regular'; font-size:12px;">diam </tspan><tspan x="0" y="129.6" style="font-family:'MyriadPro-Regular'; font-size:12px;">nonummy </tspan><tspan x="0" y="144" style="font-family:'MyriadPro-Regular'; font-size:12px;">nibh </tspan><tspan x="0" y="158.4" style="font-family:'MyriadPro-Regular'; font-size:12px;">euismod </tspan><tspan x="0" y="172.8" style="font-family:'MyriadPro-Regular'; font-size:12px;">tincidunt </tspan><tspan x="0" y="187.2" style="font-family:'MyriadPro-Regular'; font-size:12px;">ut laoreet </tspan><tspan x="0" y="201.6" style="font-family:'MyriadPro-Regular'; font-size:12px;">dolore </tspan><tspan x="0" y="216" style="font-family:'MyriadPro-Regular'; font-size:12px;">magna </tspan><tspan x="0" y="230.4" style="font-family:'MyriadPro-Regular'; font-size:12px;">aliquam </tspan><tspan x="0" y="244.8" style="font-family:'MyriadPro-Regular'; font-size:12px;">erat </tspan><tspan x="0" y="259.2" style="font-family:'MyriadPro-Regular'; font-size:12px;">volutpat. </tspan><tspan x="0" y="273.6" style="font-family:'MyriadPro-Regular'; font-size:12px;">Ut wisi </tspan><tspan x="0" y="288" style="font-family:'MyriadPro-Regular'; font-size:12px;">enim ad </tspan><tspan x="0" y="302.4" style="font-family:'MyriadPro-Regular'; font-size:12px;">minim </tspan><tspan x="0" y="316.8" style="font-family:'MyriadPro-Regular'; font-size:12px;">veniam, </tspan><tspan x="0" y="331.2" style="font-family:'MyriadPro-Regular'; font-size:12px;">quis </tspan></text>
</svg>
